<?xml version="1.0" encoding="utf-8" standalone="no"?>
<!DOCTYPE svg PUBLIC "-//W3C//DTD SVG 1.1//EN"
  "http://www.w3.org/Graphics/SVG/1.1/DTD/svg11.dtd">
<svg xmlns:xlink="http://www.w3.org/1999/xlink" width="653.94625pt" height="423.518281pt" viewBox="0 0 653.94625 423.518281" xmlns="http://www.w3.org/2000/svg" version="1.1">
 <metadata>
  <rdf:RDF xmlns:dc="http://purl.org/dc/elements/1.1/" xmlns:cc="http://creativecommons.org/ns#" xmlns:rdf="http://www.w3.org/1999/02/22-rdf-syntax-ns#">
   <cc:Work>
    <dc:type rdf:resource="http://purl.org/dc/dcmitype/StillImage"/>
    <dc:date>2026-07-13T23:58:36.357985</dc:date>
    <dc:format>image/svg+xml</dc:format>
    <dc:creator>
     <cc:Agent>
      <dc:title>Matplotlib v3.11.0, https://matplotlib.org/</dc:title>
     </cc:Agent>
    </dc:creator>
   </cc:Work>
  </rdf:RDF>
 </metadata>
 <defs>
  <style type="text/css">*{stroke-linejoin: round; stroke-linecap: butt}</style>
 </defs>
 <g id="figure_1">
  <g id="patch_1">
   <path d="M 0 423.518281 
L 653.94625 423.518281 
L 653.94625 0 
L 0 0 
z
" style="fill: #ffffff"/>
  </g>
  <g id="axes_1">
   <g id="patch_2">
    <path d="M 60.84625 399.318281 
L 646.74625 399.318281 
L 646.74625 38.958281 
L 60.84625 38.958281 
z
" style="fill: #ffffff"/>
   </g>
   <g id="matplotlib.axis_1">
    <g id="xtick_1">
     <g id="line2d_1">
      <defs>
       <path id="m724fb4fb6a" d="M 0 0 
L 0 3.5 
" style="stroke: #000000; stroke-width: 0.8"/>
      </defs>
      <g>
       <use xlink:href="#m724fb4fb6a" x="87.478068" y="399.318281" style="stroke: #000000; stroke-width: 0.8"/>
      </g>
     </g>
     <g id="text_1">
      <!-- Queen -->
      <g transform="translate(71.051506 413.915937) scale(0.1 -0.1)">
       <defs>
        <path id="DejaVuSans-34" d="M 2522 4238 
Q 1834 4238 1429 3725 
Q 1025 3213 1025 2328 
Q 1025 1447 1429 934 
Q 1834 422 2522 422 
Q 3209 422 3611 934 
Q 4013 1447 4013 2328 
Q 4013 3213 3611 3725 
Q 3209 4238 2522 4238 
z
M 3406 84 
L 4238 -825 
L 3475 -825 
L 2784 -78 
Q 2681 -84 2626 -87 
Q 2572 -91 2522 -91 
Q 1538 -91 948 567 
Q 359 1225 359 2328 
Q 359 3434 948 4092 
Q 1538 4750 2522 4750 
Q 3503 4750 4090 4092 
Q 4678 3434 4678 2328 
Q 4678 1516 4351 937 
Q 4025 359 3406 84 
z
" transform="scale(0.015625)"/>
        <path id="DejaVuSans-58" d="M 544 1381 
L 544 3500 
L 1119 3500 
L 1119 1403 
Q 1119 906 1312 657 
Q 1506 409 1894 409 
Q 2359 409 2629 706 
Q 2900 1003 2900 1516 
L 2900 3500 
L 3475 3500 
L 3475 0 
L 2900 0 
L 2900 538 
Q 2691 219 2414 64 
Q 2138 -91 1772 -91 
Q 1169 -91 856 284 
Q 544 659 544 1381 
z
M 1991 3584 
L 1991 3584 
z
" transform="scale(0.015625)"/>
        <path id="DejaVuSans-48" d="M 3597 1894 
L 3597 1613 
L 953 1613 
Q 991 1019 1311 708 
Q 1631 397 2203 397 
Q 2534 397 2845 478 
Q 3156 559 3463 722 
L 3463 178 
Q 3153 47 2828 -22 
Q 2503 -91 2169 -91 
Q 1331 -91 842 396 
Q 353 884 353 1716 
Q 353 2575 817 3079 
Q 1281 3584 2069 3584 
Q 2775 3584 3186 3129 
Q 3597 2675 3597 1894 
z
M 3022 2063 
Q 3016 2534 2758 2815 
Q 2500 3097 2075 3097 
Q 1594 3097 1305 2825 
Q 1016 2553 972 2059 
L 3022 2063 
z
" transform="scale(0.015625)"/>
        <path id="DejaVuSans-51" d="M 3513 2113 
L 3513 0 
L 2938 0 
L 2938 2094 
Q 2938 2591 2744 2837 
Q 2550 3084 2163 3084 
Q 1697 3084 1428 2787 
Q 1159 2491 1159 1978 
L 1159 0 
L 581 0 
L 581 3500 
L 1159 3500 
L 1159 2956 
Q 1366 3272 1645 3428 
Q 1925 3584 2291 3584 
Q 2894 3584 3203 3211 
Q 3513 2838 3513 2113 
z
" transform="scale(0.015625)"/>
       </defs>
       <use xlink:href="#DejaVuSans-34"/>
       <use xlink:href="#DejaVuSans-58" transform="translate(78.71875 0)"/>
       <use xlink:href="#DejaVuSans-48" transform="translate(142.09375 0)"/>
       <use xlink:href="#DejaVuSans-48" transform="translate(203.625 0)"/>
       <use xlink:href="#DejaVuSans-51" transform="translate(265.15625 0)"/>
      </g>
     </g>
    </g>
    <g id="xtick_2">
     <g id="line2d_2">
      <g>
       <use xlink:href="#m724fb4fb6a" x="265.023523" y="399.318281" style="stroke: #000000; stroke-width: 0.8"/>
      </g>
     </g>
     <g id="text_2">
      <!-- KNN3 -->
      <g transform="translate(251.082116 413.915937) scale(0.1 -0.1)">
       <defs>
        <path id="DejaVuSans-2e" d="M 628 4666 
L 1259 4666 
L 1259 2694 
L 3353 4666 
L 4166 4666 
L 1850 2491 
L 4331 0 
L 3500 0 
L 1259 2247 
L 1259 0 
L 628 0 
L 628 4666 
z
" transform="scale(0.015625)"/>
        <path id="DejaVuSans-31" d="M 628 4666 
L 1478 4666 
L 3547 763 
L 3547 4666 
L 4159 4666 
L 4159 0 
L 3309 0 
L 1241 3903 
L 1241 0 
L 628 0 
L 628 4666 
z
" transform="scale(0.015625)"/>
        <path id="DejaVuSans-16" d="M 2597 2516 
Q 3050 2419 3304 2112 
Q 3559 1806 3559 1356 
Q 3559 666 3084 287 
Q 2609 -91 1734 -91 
Q 1441 -91 1130 -33 
Q 819 25 488 141 
L 488 750 
Q 750 597 1062 519 
Q 1375 441 1716 441 
Q 2309 441 2620 675 
Q 2931 909 2931 1356 
Q 2931 1769 2642 2001 
Q 2353 2234 1838 2234 
L 1294 2234 
L 1294 2753 
L 1863 2753 
Q 2328 2753 2575 2939 
Q 2822 3125 2822 3475 
Q 2822 3834 2567 4026 
Q 2313 4219 1838 4219 
Q 1578 4219 1281 4162 
Q 984 4106 628 3988 
L 628 4550 
Q 988 4650 1302 4700 
Q 1616 4750 1894 4750 
Q 2613 4750 3031 4423 
Q 3450 4097 3450 3541 
Q 3450 3153 3228 2886 
Q 3006 2619 2597 2516 
z
" transform="scale(0.015625)"/>
       </defs>
       <use xlink:href="#DejaVuSans-2e"/>
       <use xlink:href="#DejaVuSans-31" transform="translate(65.578125 0)"/>
       <use xlink:href="#DejaVuSans-31" transform="translate(140.390625 0)"/>
       <use xlink:href="#DejaVuSans-16" transform="translate(215.203125 0)"/>
      </g>
     </g>
    </g>
    <g id="xtick_3">
     <g id="line2d_3">
      <g>
       <use xlink:href="#m724fb4fb6a" x="442.568977" y="399.318281" style="stroke: #000000; stroke-width: 0.8"/>
      </g>
     </g>
     <g id="text_3">
      <!-- KNN4 -->
      <g transform="translate(428.627571 413.915937) scale(0.1 -0.1)">
       <defs>
        <path id="DejaVuSans-17" d="M 2419 4116 
L 825 1625 
L 2419 1625 
L 2419 4116 
z
M 2253 4666 
L 3047 4666 
L 3047 1625 
L 3713 1625 
L 3713 1100 
L 3047 1100 
L 3047 0 
L 2419 0 
L 2419 1100 
L 313 1100 
L 313 1709 
L 2253 4666 
z
" transform="scale(0.015625)"/>
       </defs>
       <use xlink:href="#DejaVuSans-2e"/>
       <use xlink:href="#DejaVuSans-31" transform="translate(65.578125 0)"/>
       <use xlink:href="#DejaVuSans-31" transform="translate(140.390625 0)"/>
       <use xlink:href="#DejaVuSans-17" transform="translate(215.203125 0)"/>
      </g>
     </g>
    </g>
    <g id="xtick_4">
     <g id="line2d_4">
      <g>
       <use xlink:href="#m724fb4fb6a" x="620.114432" y="399.318281" style="stroke: #000000; stroke-width: 0.8"/>
      </g>
     </g>
     <g id="text_4">
      <!-- KNN5 -->
      <g transform="translate(606.173026 413.915937) scale(0.1 -0.1)">
       <defs>
        <path id="DejaVuSans-18" d="M 691 4666 
L 3169 4666 
L 3169 4134 
L 1269 4134 
L 1269 2991 
Q 1406 3038 1543 3061 
Q 1681 3084 1819 3084 
Q 2600 3084 3056 2656 
Q 3513 2228 3513 1497 
Q 3513 744 3044 326 
Q 2575 -91 1722 -91 
Q 1428 -91 1123 -41 
Q 819 9 494 109 
L 494 744 
Q 775 591 1075 516 
Q 1375 441 1709 441 
Q 2250 441 2565 725 
Q 2881 1009 2881 1497 
Q 2881 1984 2565 2268 
Q 2250 2553 1709 2553 
Q 1456 2553 1204 2497 
Q 953 2441 691 2322 
L 691 4666 
z
" transform="scale(0.015625)"/>
       </defs>
       <use xlink:href="#DejaVuSans-2e"/>
       <use xlink:href="#DejaVuSans-31" transform="translate(65.578125 0)"/>
       <use xlink:href="#DejaVuSans-31" transform="translate(140.390625 0)"/>
       <use xlink:href="#DejaVuSans-18" transform="translate(215.203125 0)"/>
      </g>
     </g>
    </g>
   </g>
   <g id="matplotlib.axis_2">
    <g id="ytick_1">
     <g id="line2d_5">
      <path d="M 60.84625 383.165164 
L 646.74625 383.165164 
" clip-path="url(#p6f1f13f469)" style="fill: none; stroke-dasharray: 2.96,1.28; stroke-dashoffset: 0; stroke: #b0b0b0; stroke-opacity: 0.3; stroke-width: 0.8"/>
     </g>
     <g id="line2d_6">
      <defs>
       <path id="mf0d698ea1c" d="M 0 0 
L -3.5 0 
" style="stroke: #000000; stroke-width: 0.8"/>
      </defs>
      <g>
       <use xlink:href="#mf0d698ea1c" x="60.84625" y="383.165164" style="stroke: #000000; stroke-width: 0.8"/>
      </g>
     </g>
     <g id="text_5">
      <!-- −0.14 -->
      <g transform="translate(23.200938 386.963992) scale(0.1 -0.1)">
       <defs>
        <path id="DejaVuSans-c9c" d="M 678 2272 
L 4684 2272 
L 4684 1741 
L 678 1741 
L 678 2272 
z
" transform="scale(0.015625)"/>
        <path id="DejaVuSans-13" d="M 2034 4250 
Q 1547 4250 1301 3770 
Q 1056 3291 1056 2328 
Q 1056 1369 1301 889 
Q 1547 409 2034 409 
Q 2525 409 2770 889 
Q 3016 1369 3016 2328 
Q 3016 3291 2770 3770 
Q 2525 4250 2034 4250 
z
M 2034 4750 
Q 2819 4750 3233 4129 
Q 3647 3509 3647 2328 
Q 3647 1150 3233 529 
Q 2819 -91 2034 -91 
Q 1250 -91 836 529 
Q 422 1150 422 2328 
Q 422 3509 836 4129 
Q 1250 4750 2034 4750 
z
" transform="scale(0.015625)"/>
        <path id="DejaVuSans-11" d="M 684 794 
L 1344 794 
L 1344 0 
L 684 0 
L 684 794 
z
" transform="scale(0.015625)"/>
        <path id="DejaVuSans-14" d="M 794 531 
L 1825 531 
L 1825 4091 
L 703 3866 
L 703 4441 
L 1819 4666 
L 2450 4666 
L 2450 531 
L 3481 531 
L 3481 0 
L 794 0 
L 794 531 
z
" transform="scale(0.015625)"/>
       </defs>
       <use xlink:href="#DejaVuSans-c9c"/>
       <use xlink:href="#DejaVuSans-13" transform="translate(83.796875 0)"/>
       <use xlink:href="#DejaVuSans-11" transform="translate(147.421875 0)"/>
       <use xlink:href="#DejaVuSans-14" transform="translate(179.203125 0)"/>
       <use xlink:href="#DejaVuSans-17" transform="translate(242.828125 0)"/>
      </g>
     </g>
    </g>
    <g id="ytick_2">
     <g id="line2d_7">
      <path d="M 60.84625 323.897732 
L 646.74625 323.897732 
" clip-path="url(#p6f1f13f469)" style="fill: none; stroke-dasharray: 2.96,1.28; stroke-dashoffset: 0; stroke: #b0b0b0; stroke-opacity: 0.3; stroke-width: 0.8"/>
     </g>
     <g id="line2d_8">
      <g>
       <use xlink:href="#mf0d698ea1c" x="60.84625" y="323.897732" style="stroke: #000000; stroke-width: 0.8"/>
      </g>
     </g>
     <g id="text_6">
      <!-- −0.12 -->
      <g transform="translate(23.200938 327.69656) scale(0.1 -0.1)">
       <defs>
        <path id="DejaVuSans-15" d="M 1228 531 
L 3431 531 
L 3431 0 
L 469 0 
L 469 531 
Q 828 903 1448 1529 
Q 2069 2156 2228 2338 
Q 2531 2678 2651 2914 
Q 2772 3150 2772 3378 
Q 2772 3750 2511 3984 
Q 2250 4219 1831 4219 
Q 1534 4219 1204 4116 
Q 875 4013 500 3803 
L 500 4441 
Q 881 4594 1212 4672 
Q 1544 4750 1819 4750 
Q 2544 4750 2975 4387 
Q 3406 4025 3406 3419 
Q 3406 3131 3298 2873 
Q 3191 2616 2906 2266 
Q 2828 2175 2409 1742 
Q 1991 1309 1228 531 
z
" transform="scale(0.015625)"/>
       </defs>
       <use xlink:href="#DejaVuSans-c9c"/>
       <use xlink:href="#DejaVuSans-13" transform="translate(83.796875 0)"/>
       <use xlink:href="#DejaVuSans-11" transform="translate(147.421875 0)"/>
       <use xlink:href="#DejaVuSans-14" transform="translate(179.203125 0)"/>
       <use xlink:href="#DejaVuSans-15" transform="translate(242.828125 0)"/>
      </g>
     </g>
    </g>
    <g id="ytick_3">
     <g id="line2d_9">
      <path d="M 60.84625 264.6303 
L 646.74625 264.6303 
" clip-path="url(#p6f1f13f469)" style="fill: none; stroke-dasharray: 2.96,1.28; stroke-dashoffset: 0; stroke: #b0b0b0; stroke-opacity: 0.3; stroke-width: 0.8"/>
     </g>
     <g id="line2d_10">
      <g>
       <use xlink:href="#mf0d698ea1c" x="60.84625" y="264.6303" style="stroke: #000000; stroke-width: 0.8"/>
      </g>
     </g>
     <g id="text_7">
      <!-- −0.10 -->
      <g transform="translate(23.200938 268.429128) scale(0.1 -0.1)">
       <use xlink:href="#DejaVuSans-c9c"/>
       <use xlink:href="#DejaVuSans-13" transform="translate(83.796875 0)"/>
       <use xlink:href="#DejaVuSans-11" transform="translate(147.421875 0)"/>
       <use xlink:href="#DejaVuSans-14" transform="translate(179.203125 0)"/>
       <use xlink:href="#DejaVuSans-13" transform="translate(242.828125 0)"/>
      </g>
     </g>
    </g>
    <g id="ytick_4">
     <g id="line2d_11">
      <path d="M 60.84625 205.362868 
L 646.74625 205.362868 
" clip-path="url(#p6f1f13f469)" style="fill: none; stroke-dasharray: 2.96,1.28; stroke-dashoffset: 0; stroke: #b0b0b0; stroke-opacity: 0.3; stroke-width: 0.8"/>
     </g>
     <g id="line2d_12">
      <g>
       <use xlink:href="#mf0d698ea1c" x="60.84625" y="205.362868" style="stroke: #000000; stroke-width: 0.8"/>
      </g>
     </g>
     <g id="text_8">
      <!-- −0.08 -->
      <g transform="translate(23.200938 209.161696) scale(0.1 -0.1)">
       <defs>
        <path id="DejaVuSans-1b" d="M 2034 2216 
Q 1584 2216 1326 1975 
Q 1069 1734 1069 1313 
Q 1069 891 1326 650 
Q 1584 409 2034 409 
Q 2484 409 2743 651 
Q 3003 894 3003 1313 
Q 3003 1734 2745 1975 
Q 2488 2216 2034 2216 
z
M 1403 2484 
Q 997 2584 770 2862 
Q 544 3141 544 3541 
Q 544 4100 942 4425 
Q 1341 4750 2034 4750 
Q 2731 4750 3128 4425 
Q 3525 4100 3525 3541 
Q 3525 3141 3298 2862 
Q 3072 2584 2669 2484 
Q 3125 2378 3379 2068 
Q 3634 1759 3634 1313 
Q 3634 634 3220 271 
Q 2806 -91 2034 -91 
Q 1263 -91 848 271 
Q 434 634 434 1313 
Q 434 1759 690 2068 
Q 947 2378 1403 2484 
z
M 1172 3481 
Q 1172 3119 1398 2916 
Q 1625 2713 2034 2713 
Q 2441 2713 2670 2916 
Q 2900 3119 2900 3481 
Q 2900 3844 2670 4047 
Q 2441 4250 2034 4250 
Q 1625 4250 1398 4047 
Q 1172 3844 1172 3481 
z
" transform="scale(0.015625)"/>
       </defs>
       <use xlink:href="#DejaVuSans-c9c"/>
       <use xlink:href="#DejaVuSans-13" transform="translate(83.796875 0)"/>
       <use xlink:href="#DejaVuSans-11" transform="translate(147.421875 0)"/>
       <use xlink:href="#DejaVuSans-13" transform="translate(179.203125 0)"/>
       <use xlink:href="#DejaVuSans-1b" transform="translate(242.828125 0)"/>
      </g>
     </g>
    </g>
    <g id="ytick_5">
     <g id="line2d_13">
      <path d="M 60.84625 146.095437 
L 646.74625 146.095437 
" clip-path="url(#p6f1f13f469)" style="fill: none; stroke-dasharray: 2.96,1.28; stroke-dashoffset: 0; stroke: #b0b0b0; stroke-opacity: 0.3; stroke-width: 0.8"/>
     </g>
     <g id="line2d_14">
      <g>
       <use xlink:href="#mf0d698ea1c" x="60.84625" y="146.095437" style="stroke: #000000; stroke-width: 0.8"/>
      </g>
     </g>
     <g id="text_9">
      <!-- −0.06 -->
      <g transform="translate(23.200938 149.894265) scale(0.1 -0.1)">
       <defs>
        <path id="DejaVuSans-19" d="M 2113 2584 
Q 1688 2584 1439 2293 
Q 1191 2003 1191 1497 
Q 1191 994 1439 701 
Q 1688 409 2113 409 
Q 2538 409 2786 701 
Q 3034 994 3034 1497 
Q 3034 2003 2786 2293 
Q 2538 2584 2113 2584 
z
M 3366 4563 
L 3366 3988 
Q 3128 4100 2886 4159 
Q 2644 4219 2406 4219 
Q 1781 4219 1451 3797 
Q 1122 3375 1075 2522 
Q 1259 2794 1537 2939 
Q 1816 3084 2150 3084 
Q 2853 3084 3261 2657 
Q 3669 2231 3669 1497 
Q 3669 778 3244 343 
Q 2819 -91 2113 -91 
Q 1303 -91 875 529 
Q 447 1150 447 2328 
Q 447 3434 972 4092 
Q 1497 4750 2381 4750 
Q 2619 4750 2861 4703 
Q 3103 4656 3366 4563 
z
" transform="scale(0.015625)"/>
       </defs>
       <use xlink:href="#DejaVuSans-c9c"/>
       <use xlink:href="#DejaVuSans-13" transform="translate(83.796875 0)"/>
       <use xlink:href="#DejaVuSans-11" transform="translate(147.421875 0)"/>
       <use xlink:href="#DejaVuSans-13" transform="translate(179.203125 0)"/>
       <use xlink:href="#DejaVuSans-19" transform="translate(242.828125 0)"/>
      </g>
     </g>
    </g>
    <g id="ytick_6">
     <g id="line2d_15">
      <path d="M 60.84625 86.828005 
L 646.74625 86.828005 
" clip-path="url(#p6f1f13f469)" style="fill: none; stroke-dasharray: 2.96,1.28; stroke-dashoffset: 0; stroke: #b0b0b0; stroke-opacity: 0.3; stroke-width: 0.8"/>
     </g>
     <g id="line2d_16">
      <g>
       <use xlink:href="#mf0d698ea1c" x="60.84625" y="86.828005" style="stroke: #000000; stroke-width: 0.8"/>
      </g>
     </g>
     <g id="text_10">
      <!-- −0.04 -->
      <g transform="translate(23.200938 90.626833) scale(0.1 -0.1)">
       <use xlink:href="#DejaVuSans-c9c"/>
       <use xlink:href="#DejaVuSans-13" transform="translate(83.796875 0)"/>
       <use xlink:href="#DejaVuSans-11" transform="translate(147.421875 0)"/>
       <use xlink:href="#DejaVuSans-13" transform="translate(179.203125 0)"/>
       <use xlink:href="#DejaVuSans-17" transform="translate(242.828125 0)"/>
      </g>
     </g>
    </g>
    <g id="text_11">
     <!-- Global Moran's I -->
     <g transform="translate(16.318125 267.430781) rotate(-90) scale(0.12 -0.12)">
      <defs>
       <path id="DejaVuSans-2a" d="M 3809 666 
L 3809 1919 
L 2778 1919 
L 2778 2438 
L 4434 2438 
L 4434 434 
Q 4069 175 3628 42 
Q 3188 -91 2688 -91 
Q 1594 -91 976 548 
Q 359 1188 359 2328 
Q 359 3472 976 4111 
Q 1594 4750 2688 4750 
Q 3144 4750 3555 4637 
Q 3966 4525 4313 4306 
L 4313 3634 
Q 3963 3931 3569 4081 
Q 3175 4231 2741 4231 
Q 1884 4231 1454 3753 
Q 1025 3275 1025 2328 
Q 1025 1384 1454 906 
Q 1884 428 2741 428 
Q 3075 428 3337 486 
Q 3600 544 3809 666 
z
" transform="scale(0.015625)"/>
       <path id="DejaVuSans-4f" d="M 603 4863 
L 1178 4863 
L 1178 0 
L 603 0 
L 603 4863 
z
" transform="scale(0.015625)"/>
       <path id="DejaVuSans-52" d="M 1959 3097 
Q 1497 3097 1228 2736 
Q 959 2375 959 1747 
Q 959 1119 1226 758 
Q 1494 397 1959 397 
Q 2419 397 2687 759 
Q 2956 1122 2956 1747 
Q 2956 2369 2687 2733 
Q 2419 3097 1959 3097 
z
M 1959 3584 
Q 2709 3584 3137 3096 
Q 3566 2609 3566 1747 
Q 3566 888 3137 398 
Q 2709 -91 1959 -91 
Q 1206 -91 779 398 
Q 353 888 353 1747 
Q 353 2609 779 3096 
Q 1206 3584 1959 3584 
z
" transform="scale(0.015625)"/>
       <path id="DejaVuSans-45" d="M 3116 1747 
Q 3116 2381 2855 2742 
Q 2594 3103 2138 3103 
Q 1681 3103 1420 2742 
Q 1159 2381 1159 1747 
Q 1159 1113 1420 752 
Q 1681 391 2138 391 
Q 2594 391 2855 752 
Q 3116 1113 3116 1747 
z
M 1159 2969 
Q 1341 3281 1617 3432 
Q 1894 3584 2278 3584 
Q 2916 3584 3314 3078 
Q 3713 2572 3713 1747 
Q 3713 922 3314 415 
Q 2916 -91 2278 -91 
Q 1894 -91 1617 61 
Q 1341 213 1159 525 
L 1159 0 
L 581 0 
L 581 4863 
L 1159 4863 
L 1159 2969 
z
" transform="scale(0.015625)"/>
       <path id="DejaVuSans-44" d="M 2194 1759 
Q 1497 1759 1228 1600 
Q 959 1441 959 1056 
Q 959 750 1161 570 
Q 1363 391 1709 391 
Q 2188 391 2477 730 
Q 2766 1069 2766 1631 
L 2766 1759 
L 2194 1759 
z
M 3341 1997 
L 3341 0 
L 2766 0 
L 2766 531 
Q 2569 213 2275 61 
Q 1981 -91 1556 -91 
Q 1019 -91 701 211 
Q 384 513 384 1019 
Q 384 1609 779 1909 
Q 1175 2209 1959 2209 
L 2766 2209 
L 2766 2266 
Q 2766 2663 2505 2880 
Q 2244 3097 1772 3097 
Q 1472 3097 1187 3025 
Q 903 2953 641 2809 
L 641 3341 
Q 956 3463 1253 3523 
Q 1550 3584 1831 3584 
Q 2591 3584 2966 3190 
Q 3341 2797 3341 1997 
z
" transform="scale(0.015625)"/>
       <path id="DejaVuSans-3" transform="scale(0.015625)"/>
       <path id="DejaVuSans-30" d="M 628 4666 
L 1569 4666 
L 2759 1491 
L 3956 4666 
L 4897 4666 
L 4897 0 
L 4281 0 
L 4281 4097 
L 3078 897 
L 2444 897 
L 1241 4097 
L 1241 0 
L 628 0 
L 628 4666 
z
" transform="scale(0.015625)"/>
       <path id="DejaVuSans-55" d="M 2631 2963 
Q 2534 3019 2420 3045 
Q 2306 3072 2169 3072 
Q 1681 3072 1420 2755 
Q 1159 2438 1159 1844 
L 1159 0 
L 581 0 
L 581 3500 
L 1159 3500 
L 1159 2956 
Q 1341 3275 1631 3429 
Q 1922 3584 2338 3584 
Q 2397 3584 2469 3576 
Q 2541 3569 2628 3553 
L 2631 2963 
z
" transform="scale(0.015625)"/>
       <path id="DejaVuSans-a" d="M 1147 4666 
L 1147 2931 
L 616 2931 
L 616 4666 
L 1147 4666 
z
" transform="scale(0.015625)"/>
       <path id="DejaVuSans-56" d="M 2834 3397 
L 2834 2853 
Q 2591 2978 2328 3040 
Q 2066 3103 1784 3103 
Q 1356 3103 1142 2972 
Q 928 2841 928 2578 
Q 928 2378 1081 2264 
Q 1234 2150 1697 2047 
L 1894 2003 
Q 2506 1872 2764 1633 
Q 3022 1394 3022 966 
Q 3022 478 2636 193 
Q 2250 -91 1575 -91 
Q 1294 -91 989 -36 
Q 684 19 347 128 
L 347 722 
Q 666 556 975 473 
Q 1284 391 1588 391 
Q 1994 391 2212 530 
Q 2431 669 2431 922 
Q 2431 1156 2273 1281 
Q 2116 1406 1581 1522 
L 1381 1569 
Q 847 1681 609 1914 
Q 372 2147 372 2553 
Q 372 3047 722 3315 
Q 1072 3584 1716 3584 
Q 2034 3584 2315 3537 
Q 2597 3491 2834 3397 
z
" transform="scale(0.015625)"/>
       <path id="DejaVuSans-2c" d="M 628 4666 
L 1259 4666 
L 1259 0 
L 628 0 
L 628 4666 
z
" transform="scale(0.015625)"/>
      </defs>
      <use xlink:href="#DejaVuSans-2a"/>
      <use xlink:href="#DejaVuSans-4f" transform="translate(77.484375 0)"/>
      <use xlink:href="#DejaVuSans-52" transform="translate(105.265625 0)"/>
      <use xlink:href="#DejaVuSans-45" transform="translate(166.453125 0)"/>
      <use xlink:href="#DejaVuSans-44" transform="translate(229.9375 0)"/>
      <use xlink:href="#DejaVuSans-4f" transform="translate(291.21875 0)"/>
      <use xlink:href="#DejaVuSans-3" transform="translate(319 0)"/>
      <use xlink:href="#DejaVuSans-30" transform="translate(350.78125 0)"/>
      <use xlink:href="#DejaVuSans-52" transform="translate(437.0625 0)"/>
      <use xlink:href="#DejaVuSans-55" transform="translate(498.25 0)"/>
      <use xlink:href="#DejaVuSans-44" transform="translate(539.359375 0)"/>
      <use xlink:href="#DejaVuSans-51" transform="translate(600.640625 0)"/>
      <use xlink:href="#DejaVuSans-a" transform="translate(664.015625 0)"/>
      <use xlink:href="#DejaVuSans-56" transform="translate(691.5 0)"/>
      <use xlink:href="#DejaVuSans-3" transform="translate(743.59375 0)"/>
      <use xlink:href="#DejaVuSans-2c" transform="translate(775.375 0)"/>
     </g>
    </g>
   </g>
   <g id="line2d_17">
    <path d="M 60.84625 165.851247 
L 646.74625 165.851247 
" clip-path="url(#p6f1f13f469)" style="fill: none; stroke-dasharray: 5.18,2.24; stroke-dashoffset: 0; stroke: #444444; stroke-width: 1.4"/>
   </g>
   <g id="line2d_18">
    <path d="M 87.478068 382.938281 
L 265.023523 256.182511 
L 442.568977 206.634799 
L 620.114432 55.338281 
" clip-path="url(#p6f1f13f469)" style="fill: none; stroke: #444444; stroke-width: 1.4; stroke-linecap: square"/>
   </g>
   <g id="patch_3">
    <path d="M 60.84625 399.318281 
L 60.84625 38.958281 
" style="fill: none; stroke: #000000; stroke-width: 0.8; stroke-linejoin: miter; stroke-linecap: square"/>
   </g>
   <g id="patch_4">
    <path d="M 646.74625 399.318281 
L 646.74625 38.958281 
" style="fill: none; stroke: #000000; stroke-width: 0.8; stroke-linejoin: miter; stroke-linecap: square"/>
   </g>
   <g id="patch_5">
    <path d="M 60.84625 399.318281 
L 646.74625 399.318281 
" style="fill: none; stroke: #000000; stroke-width: 0.8; stroke-linejoin: miter; stroke-linecap: square"/>
   </g>
   <g id="patch_6">
    <path d="M 60.84625 38.958281 
L 646.74625 38.958281 
" style="fill: none; stroke: #000000; stroke-width: 0.8; stroke-linejoin: miter; stroke-linecap: square"/>
   </g>
   <g id="PathCollection_1">
    <defs>
     <path id="C0_0_2cc0ba2af9" d="M 0 5.244044 
C 1.390737 5.244044 2.7247 4.691499 3.708099 3.708099 
C 4.691499 2.7247 5.244044 1.390737 5.244044 -0 
C 5.244044 -1.390737 4.691499 -2.7247 3.708099 -3.708099 
C 2.7247 -4.691499 1.390737 -5.244044 0 -5.244044 
C -1.390737 -5.244044 -2.7247 -4.691499 -3.708099 -3.708099 
C -4.691499 -2.7247 -5.244044 -1.390737 -5.244044 0 
C -5.244044 1.390737 -4.691499 2.7247 -3.708099 3.708099 
C -2.7247 4.691499 -1.390737 5.244044 0 5.244044 
z
"/>
    </defs>
    <g clip-path="url(#p6f1f13f469)">
     <use xlink:href="#C0_0_2cc0ba2af9" x="87.478068" y="382.938281" style="fill: #981c24; stroke: #ffffff; stroke-width: 0.8"/>
    </g>
    <g clip-path="url(#p6f1f13f469)">
     <use xlink:href="#C0_0_2cc0ba2af9" x="265.023523" y="256.182511" style="fill: #4c78a8; stroke: #ffffff; stroke-width: 0.8"/>
    </g>
    <g clip-path="url(#p6f1f13f469)">
     <use xlink:href="#C0_0_2cc0ba2af9" x="442.568977" y="206.634799" style="fill: #72b7b2; stroke: #ffffff; stroke-width: 0.8"/>
    </g>
    <g clip-path="url(#p6f1f13f469)">
     <use xlink:href="#C0_0_2cc0ba2af9" x="620.114432" y="55.338281" style="fill: #54a24b; stroke: #ffffff; stroke-width: 0.8"/>
    </g>
   </g>
   <g id="text_12">
    <!-- p=0.402 -->
    <g style="fill: #333333" transform="translate(65.799943 344.975478) scale(0.1 -0.1)">
     <defs>
      <path id="DejaVuSans-53" d="M 1159 525 
L 1159 -1331 
L 581 -1331 
L 581 3500 
L 1159 3500 
L 1159 2969 
Q 1341 3281 1617 3432 
Q 1894 3584 2278 3584 
Q 2916 3584 3314 3078 
Q 3713 2572 3713 1747 
Q 3713 922 3314 415 
Q 2916 -91 2278 -91 
Q 1894 -91 1617 61 
Q 1341 213 1159 525 
z
M 3116 1747 
Q 3116 2381 2855 2742 
Q 2594 3103 2138 3103 
Q 1681 3103 1420 2742 
Q 1159 2381 1159 1747 
Q 1159 1113 1420 752 
Q 1681 391 2138 391 
Q 2594 391 2855 752 
Q 3116 1113 3116 1747 
z
" transform="scale(0.015625)"/>
      <path id="DejaVuSans-20" d="M 678 2906 
L 4684 2906 
L 4684 2381 
L 678 2381 
L 678 2906 
z
M 678 1631 
L 4684 1631 
L 4684 1100 
L 678 1100 
L 678 1631 
z
" transform="scale(0.015625)"/>
     </defs>
     <use xlink:href="#DejaVuSans-53"/>
     <use xlink:href="#DejaVuSans-20" transform="translate(63.484375 0)"/>
     <use xlink:href="#DejaVuSans-13" transform="translate(147.28125 0)"/>
     <use xlink:href="#DejaVuSans-11" transform="translate(210.90625 0)"/>
     <use xlink:href="#DejaVuSans-17" transform="translate(242.6875 0)"/>
     <use xlink:href="#DejaVuSans-13" transform="translate(306.3125 0)"/>
     <use xlink:href="#DejaVuSans-15" transform="translate(369.9375 0)"/>
    </g>
   </g>
   <g id="text_13">
    <!-- p=0.461 -->
    <g style="fill: #333333" transform="translate(243.345398 218.219709) scale(0.1 -0.1)">
     <use xlink:href="#DejaVuSans-53"/>
     <use xlink:href="#DejaVuSans-20" transform="translate(63.484375 0)"/>
     <use xlink:href="#DejaVuSans-13" transform="translate(147.28125 0)"/>
     <use xlink:href="#DejaVuSans-11" transform="translate(210.90625 0)"/>
     <use xlink:href="#DejaVuSans-17" transform="translate(242.6875 0)"/>
     <use xlink:href="#DejaVuSans-19" transform="translate(306.3125 0)"/>
     <use xlink:href="#DejaVuSans-14" transform="translate(369.9375 0)"/>
    </g>
   </g>
   <g id="text_14">
    <!-- p=0.476 -->
    <g style="fill: #333333" transform="translate(420.890852 168.671996) scale(0.1 -0.1)">
     <defs>
      <path id="DejaVuSans-1a" d="M 525 4666 
L 3525 4666 
L 3525 4397 
L 1831 0 
L 1172 0 
L 2766 4134 
L 525 4134 
L 525 4666 
z
" transform="scale(0.015625)"/>
     </defs>
     <use xlink:href="#DejaVuSans-53"/>
     <use xlink:href="#DejaVuSans-20" transform="translate(63.484375 0)"/>
     <use xlink:href="#DejaVuSans-13" transform="translate(147.28125 0)"/>
     <use xlink:href="#DejaVuSans-11" transform="translate(210.90625 0)"/>
     <use xlink:href="#DejaVuSans-17" transform="translate(242.6875 0)"/>
     <use xlink:href="#DejaVuSans-1a" transform="translate(306.3125 0)"/>
     <use xlink:href="#DejaVuSans-19" transform="translate(369.9375 0)"/>
    </g>
   </g>
   <g id="text_15">
    <!-- p=0.307 -->
    <g style="fill: #333333" transform="translate(598.436307 110.349883) scale(0.1 -0.1)">
     <use xlink:href="#DejaVuSans-53"/>
     <use xlink:href="#DejaVuSans-20" transform="translate(63.484375 0)"/>
     <use xlink:href="#DejaVuSans-13" transform="translate(147.28125 0)"/>
     <use xlink:href="#DejaVuSans-11" transform="translate(210.90625 0)"/>
     <use xlink:href="#DejaVuSans-16" transform="translate(242.6875 0)"/>
     <use xlink:href="#DejaVuSans-13" transform="translate(306.3125 0)"/>
     <use xlink:href="#DejaVuSans-1a" transform="translate(369.9375 0)"/>
    </g>
   </g>
   <g id="text_16">
    <!-- Global Moran's I Across Spatial-Weight Specifications -->
    <g transform="translate(155.420078 24.958281) scale(0.15 -0.15)">
     <defs>
      <path id="DejaVuSans-24" d="M 2188 4044 
L 1331 1722 
L 3047 1722 
L 2188 4044 
z
M 1831 4666 
L 2547 4666 
L 4325 0 
L 3669 0 
L 3244 1197 
L 1141 1197 
L 716 0 
L 50 0 
L 1831 4666 
z
" transform="scale(0.015625)"/>
      <path id="DejaVuSans-46" d="M 3122 3366 
L 3122 2828 
Q 2878 2963 2633 3030 
Q 2388 3097 2138 3097 
Q 1578 3097 1268 2742 
Q 959 2388 959 1747 
Q 959 1106 1268 751 
Q 1578 397 2138 397 
Q 2388 397 2633 464 
Q 2878 531 3122 666 
L 3122 134 
Q 2881 22 2623 -34 
Q 2366 -91 2075 -91 
Q 1284 -91 818 406 
Q 353 903 353 1747 
Q 353 2603 823 3093 
Q 1294 3584 2113 3584 
Q 2378 3584 2631 3529 
Q 2884 3475 3122 3366 
z
" transform="scale(0.015625)"/>
      <path id="DejaVuSans-36" d="M 3425 4513 
L 3425 3897 
Q 3066 4069 2747 4153 
Q 2428 4238 2131 4238 
Q 1616 4238 1336 4038 
Q 1056 3838 1056 3469 
Q 1056 3159 1242 3001 
Q 1428 2844 1947 2747 
L 2328 2669 
Q 3034 2534 3370 2195 
Q 3706 1856 3706 1288 
Q 3706 609 3251 259 
Q 2797 -91 1919 -91 
Q 1588 -91 1214 -16 
Q 841 59 441 206 
L 441 856 
Q 825 641 1194 531 
Q 1563 422 1919 422 
Q 2459 422 2753 634 
Q 3047 847 3047 1241 
Q 3047 1584 2836 1778 
Q 2625 1972 2144 2069 
L 1759 2144 
Q 1053 2284 737 2584 
Q 422 2884 422 3419 
Q 422 4038 858 4394 
Q 1294 4750 2059 4750 
Q 2388 4750 2728 4690 
Q 3069 4631 3425 4513 
z
" transform="scale(0.015625)"/>
      <path id="DejaVuSans-57" d="M 1172 4494 
L 1172 3500 
L 2356 3500 
L 2356 3053 
L 1172 3053 
L 1172 1153 
Q 1172 725 1289 603 
Q 1406 481 1766 481 
L 2356 481 
L 2356 0 
L 1766 0 
Q 1100 0 847 248 
Q 594 497 594 1153 
L 594 3053 
L 172 3053 
L 172 3500 
L 594 3500 
L 594 4494 
L 1172 4494 
z
" transform="scale(0.015625)"/>
      <path id="DejaVuSans-4c" d="M 603 3500 
L 1178 3500 
L 1178 0 
L 603 0 
L 603 3500 
z
M 603 4863 
L 1178 4863 
L 1178 4134 
L 603 4134 
L 603 4863 
z
" transform="scale(0.015625)"/>
      <path id="DejaVuSans-10" d="M 313 2009 
L 1997 2009 
L 1997 1497 
L 313 1497 
L 313 2009 
z
" transform="scale(0.015625)"/>
      <path id="DejaVuSans-3a" d="M 213 4666 
L 850 4666 
L 1831 722 
L 2809 4666 
L 3519 4666 
L 4500 722 
L 5478 4666 
L 6119 4666 
L 4947 0 
L 4153 0 
L 3169 4050 
L 2175 0 
L 1381 0 
L 213 4666 
z
" transform="scale(0.015625)"/>
      <path id="DejaVuSans-4a" d="M 2906 1791 
Q 2906 2416 2648 2759 
Q 2391 3103 1925 3103 
Q 1463 3103 1205 2759 
Q 947 2416 947 1791 
Q 947 1169 1205 825 
Q 1463 481 1925 481 
Q 2391 481 2648 825 
Q 2906 1169 2906 1791 
z
M 3481 434 
Q 3481 -459 3084 -895 
Q 2688 -1331 1869 -1331 
Q 1566 -1331 1297 -1286 
Q 1028 -1241 775 -1147 
L 775 -588 
Q 1028 -725 1275 -790 
Q 1522 -856 1778 -856 
Q 2344 -856 2625 -561 
Q 2906 -266 2906 331 
L 2906 616 
Q 2728 306 2450 153 
Q 2172 0 1784 0 
Q 1141 0 747 490 
Q 353 981 353 1791 
Q 353 2603 747 3093 
Q 1141 3584 1784 3584 
Q 2172 3584 2450 3431 
Q 2728 3278 2906 2969 
L 2906 3500 
L 3481 3500 
L 3481 434 
z
" transform="scale(0.015625)"/>
      <path id="DejaVuSans-4b" d="M 3513 2113 
L 3513 0 
L 2938 0 
L 2938 2094 
Q 2938 2591 2744 2837 
Q 2550 3084 2163 3084 
Q 1697 3084 1428 2787 
Q 1159 2491 1159 1978 
L 1159 0 
L 581 0 
L 581 4863 
L 1159 4863 
L 1159 2956 
Q 1366 3272 1645 3428 
Q 1925 3584 2291 3584 
Q 2894 3584 3203 3211 
Q 3513 2838 3513 2113 
z
" transform="scale(0.015625)"/>
      <path id="DejaVuSans-13af" d="M 3431 3500 
L 3431 0 
L 2853 0 
L 2853 3053 
L 1275 3053 
L 1275 0 
L 697 0 
L 697 3053 
L 147 3053 
L 147 3500 
L 697 3500 
L 697 3744 
Q 697 4316 967 4589 
Q 1238 4863 1797 4863 
L 2375 4863 
L 2375 4384 
L 1825 4384 
Q 1516 4384 1395 4259 
Q 1275 4134 1275 3809 
L 1275 3500 
L 3431 3500 
z
M 2853 4856 
L 3431 4856 
L 3431 4128 
L 2853 4128 
L 2853 4856 
z
" transform="scale(0.015625)"/>
     </defs>
     <use xlink:href="#DejaVuSans-2a"/>
     <use xlink:href="#DejaVuSans-4f" transform="translate(77.484375 0)"/>
     <use xlink:href="#DejaVuSans-52" transform="translate(105.265625 0)"/>
     <use xlink:href="#DejaVuSans-45" transform="translate(166.453125 0)"/>
     <use xlink:href="#DejaVuSans-44" transform="translate(229.9375 0)"/>
     <use xlink:href="#DejaVuSans-4f" transform="translate(291.21875 0)"/>
     <use xlink:href="#DejaVuSans-3" transform="translate(319 0)"/>
     <use xlink:href="#DejaVuSans-30" transform="translate(350.78125 0)"/>
     <use xlink:href="#DejaVuSans-52" transform="translate(437.0625 0)"/>
     <use xlink:href="#DejaVuSans-55" transform="translate(498.25 0)"/>
     <use xlink:href="#DejaVuSans-44" transform="translate(539.359375 0)"/>
     <use xlink:href="#DejaVuSans-51" transform="translate(600.640625 0)"/>
     <use xlink:href="#DejaVuSans-a" transform="translate(664.015625 0)"/>
     <use xlink:href="#DejaVuSans-56" transform="translate(691.5 0)"/>
     <use xlink:href="#DejaVuSans-3" transform="translate(743.59375 0)"/>
     <use xlink:href="#DejaVuSans-2c" transform="translate(775.375 0)"/>
     <use xlink:href="#DejaVuSans-3" transform="translate(804.875 0)"/>
     <use xlink:href="#DejaVuSans-24" transform="translate(836.65625 0)"/>
     <use xlink:href="#DejaVuSans-46" transform="translate(903.3125 0)"/>
     <use xlink:href="#DejaVuSans-55" transform="translate(958.296875 0)"/>
     <use xlink:href="#DejaVuSans-52" transform="translate(997.203125 0)"/>
     <use xlink:href="#DejaVuSans-56" transform="translate(1058.390625 0)"/>
     <use xlink:href="#DejaVuSans-56" transform="translate(1110.484375 0)"/>
     <use xlink:href="#DejaVuSans-3" transform="translate(1162.578125 0)"/>
     <use xlink:href="#DejaVuSans-36" transform="translate(1194.359375 0)"/>
     <use xlink:href="#DejaVuSans-53" transform="translate(1257.84375 0)"/>
     <use xlink:href="#DejaVuSans-44" transform="translate(1321.328125 0)"/>
     <use xlink:href="#DejaVuSans-57" transform="translate(1382.609375 0)"/>
     <use xlink:href="#DejaVuSans-4c" transform="translate(1421.8125 0)"/>
     <use xlink:href="#DejaVuSans-44" transform="translate(1449.59375 0)"/>
     <use xlink:href="#DejaVuSans-4f" transform="translate(1510.875 0)"/>
     <use xlink:href="#DejaVuSans-10" transform="translate(1538.65625 0)"/>
     <use xlink:href="#DejaVuSans-3a" transform="translate(1570.6875 0)"/>
     <use xlink:href="#DejaVuSans-48" transform="translate(1663.703125 0)"/>
     <use xlink:href="#DejaVuSans-4c" transform="translate(1725.234375 0)"/>
     <use xlink:href="#DejaVuSans-4a" transform="translate(1753.015625 0)"/>
     <use xlink:href="#DejaVuSans-4b" transform="translate(1816.5 0)"/>
     <use xlink:href="#DejaVuSans-57" transform="translate(1879.875 0)"/>
     <use xlink:href="#DejaVuSans-3" transform="translate(1919.078125 0)"/>
     <use xlink:href="#DejaVuSans-36" transform="translate(1950.859375 0)"/>
     <use xlink:href="#DejaVuSans-53" transform="translate(2014.34375 0)"/>
     <use xlink:href="#DejaVuSans-48" transform="translate(2077.828125 0)"/>
     <use xlink:href="#DejaVuSans-46" transform="translate(2139.359375 0)"/>
     <use xlink:href="#DejaVuSans-4c" transform="translate(2194.34375 0)"/>
     <use xlink:href="#DejaVuSans-13af" transform="translate(2222.125 0)"/>
     <use xlink:href="#DejaVuSans-46" transform="translate(2285.109375 0)"/>
     <use xlink:href="#DejaVuSans-44" transform="translate(2340.09375 0)"/>
     <use xlink:href="#DejaVuSans-57" transform="translate(2401.375 0)"/>
     <use xlink:href="#DejaVuSans-4c" transform="translate(2440.578125 0)"/>
     <use xlink:href="#DejaVuSans-52" transform="translate(2468.359375 0)"/>
     <use xlink:href="#DejaVuSans-51" transform="translate(2529.546875 0)"/>
     <use xlink:href="#DejaVuSans-56" transform="translate(2592.921875 0)"/>
    </g>
   </g>
   <g id="legend_1">
    <g id="patch_7">
     <path d="M 421.1525 394.318281 
L 639.74625 394.318281 
Q 641.74625 394.318281 641.74625 392.318281 
L 641.74625 378.3175 
Q 641.74625 376.3175 639.74625 376.3175 
L 421.1525 376.3175 
Q 419.1525 376.3175 419.1525 378.3175 
L 419.1525 392.318281 
Q 419.1525 394.318281 421.1525 394.318281 
z
" style="fill: #ffffff; opacity: 0.8; stroke: #cccccc; stroke-linejoin: miter"/>
    </g>
    <g id="line2d_19">
     <path d="M 423.1525 384.415937 
L 433.1525 384.415937 
L 443.1525 384.415937 
" style="fill: none; stroke-dasharray: 5.18,2.24; stroke-dashoffset: 0; stroke: #444444; stroke-width: 1.4"/>
    </g>
    <g id="text_17">
     <!-- Expected I under spatial randomness -->
     <g transform="translate(451.1525 387.915937) scale(0.1 -0.1)">
      <defs>
       <path id="DejaVuSans-28" d="M 628 4666 
L 3578 4666 
L 3578 4134 
L 1259 4134 
L 1259 2753 
L 3481 2753 
L 3481 2222 
L 1259 2222 
L 1259 531 
L 3634 531 
L 3634 0 
L 628 0 
L 628 4666 
z
" transform="scale(0.015625)"/>
       <path id="DejaVuSans-5b" d="M 3513 3500 
L 2247 1797 
L 3578 0 
L 2900 0 
L 1881 1375 
L 863 0 
L 184 0 
L 1544 1831 
L 300 3500 
L 978 3500 
L 1906 2253 
L 2834 3500 
L 3513 3500 
z
" transform="scale(0.015625)"/>
       <path id="DejaVuSans-47" d="M 2906 2969 
L 2906 4863 
L 3481 4863 
L 3481 0 
L 2906 0 
L 2906 525 
Q 2725 213 2448 61 
Q 2172 -91 1784 -91 
Q 1150 -91 751 415 
Q 353 922 353 1747 
Q 353 2572 751 3078 
Q 1150 3584 1784 3584 
Q 2172 3584 2448 3432 
Q 2725 3281 2906 2969 
z
M 947 1747 
Q 947 1113 1208 752 
Q 1469 391 1925 391 
Q 2381 391 2643 752 
Q 2906 1113 2906 1747 
Q 2906 2381 2643 2742 
Q 2381 3103 1925 3103 
Q 1469 3103 1208 2742 
Q 947 2381 947 1747 
z
" transform="scale(0.015625)"/>
       <path id="DejaVuSans-50" d="M 3328 2828 
Q 3544 3216 3844 3400 
Q 4144 3584 4550 3584 
Q 5097 3584 5394 3201 
Q 5691 2819 5691 2113 
L 5691 0 
L 5113 0 
L 5113 2094 
Q 5113 2597 4934 2840 
Q 4756 3084 4391 3084 
Q 3944 3084 3684 2787 
Q 3425 2491 3425 1978 
L 3425 0 
L 2847 0 
L 2847 2094 
Q 2847 2600 2669 2842 
Q 2491 3084 2119 3084 
Q 1678 3084 1418 2786 
Q 1159 2488 1159 1978 
L 1159 0 
L 581 0 
L 581 3500 
L 1159 3500 
L 1159 2956 
Q 1356 3278 1631 3431 
Q 1906 3584 2284 3584 
Q 2666 3584 2933 3390 
Q 3200 3197 3328 2828 
z
" transform="scale(0.015625)"/>
      </defs>
      <use xlink:href="#DejaVuSans-28"/>
      <use xlink:href="#DejaVuSans-5b" transform="translate(63.1875 0)"/>
      <use xlink:href="#DejaVuSans-53" transform="translate(122.375 0)"/>
      <use xlink:href="#DejaVuSans-48" transform="translate(185.859375 0)"/>
      <use xlink:href="#DejaVuSans-46" transform="translate(247.390625 0)"/>
      <use xlink:href="#DejaVuSans-57" transform="translate(302.375 0)"/>
      <use xlink:href="#DejaVuSans-48" transform="translate(341.578125 0)"/>
      <use xlink:href="#DejaVuSans-47" transform="translate(403.109375 0)"/>
      <use xlink:href="#DejaVuSans-3" transform="translate(466.59375 0)"/>
      <use xlink:href="#DejaVuSans-2c" transform="translate(498.375 0)"/>
      <use xlink:href="#DejaVuSans-3" transform="translate(527.875 0)"/>
      <use xlink:href="#DejaVuSans-58" transform="translate(559.65625 0)"/>
      <use xlink:href="#DejaVuSans-51" transform="translate(623.03125 0)"/>
      <use xlink:href="#DejaVuSans-47" transform="translate(686.40625 0)"/>
      <use xlink:href="#DejaVuSans-48" transform="translate(749.890625 0)"/>
      <use xlink:href="#DejaVuSans-55" transform="translate(811.421875 0)"/>
      <use xlink:href="#DejaVuSans-3" transform="translate(852.53125 0)"/>
      <use xlink:href="#DejaVuSans-56" transform="translate(884.3125 0)"/>
      <use xlink:href="#DejaVuSans-53" transform="translate(936.40625 0)"/>
      <use xlink:href="#DejaVuSans-44" transform="translate(999.890625 0)"/>
      <use xlink:href="#DejaVuSans-57" transform="translate(1061.171875 0)"/>
      <use xlink:href="#DejaVuSans-4c" transform="translate(1100.375 0)"/>
      <use xlink:href="#DejaVuSans-44" transform="translate(1128.15625 0)"/>
      <use xlink:href="#DejaVuSans-4f" transform="translate(1189.4375 0)"/>
      <use xlink:href="#DejaVuSans-3" transform="translate(1217.21875 0)"/>
      <use xlink:href="#DejaVuSans-55" transform="translate(1249 0)"/>
      <use xlink:href="#DejaVuSans-44" transform="translate(1290.109375 0)"/>
      <use xlink:href="#DejaVuSans-51" transform="translate(1351.390625 0)"/>
      <use xlink:href="#DejaVuSans-47" transform="translate(1414.765625 0)"/>
      <use xlink:href="#DejaVuSans-52" transform="translate(1478.25 0)"/>
      <use xlink:href="#DejaVuSans-50" transform="translate(1539.4375 0)"/>
      <use xlink:href="#DejaVuSans-51" transform="translate(1636.84375 0)"/>
      <use xlink:href="#DejaVuSans-48" transform="translate(1700.21875 0)"/>
      <use xlink:href="#DejaVuSans-56" transform="translate(1761.75 0)"/>
      <use xlink:href="#DejaVuSans-56" transform="translate(1813.84375 0)"/>
     </g>
    </g>
   </g>
  </g>
  <g id="text_18">
   <!-- None of the global permutation tests is statistically significant at alpha = 0.05. -->
   <g style="fill: #444444" transform="translate(127.047266 15.558281) scale(0.11 -0.11)">
    <defs>
     <path id="DejaVuSans-49" d="M 2375 4863 
L 2375 4384 
L 1825 4384 
Q 1516 4384 1395 4259 
Q 1275 4134 1275 3809 
L 1275 3500 
L 2222 3500 
L 2222 3053 
L 1275 3053 
L 1275 0 
L 697 0 
L 697 3053 
L 147 3053 
L 147 3500 
L 697 3500 
L 697 3744 
Q 697 4328 969 4595 
Q 1241 4863 1831 4863 
L 2375 4863 
z
" transform="scale(0.015625)"/>
     <path id="DejaVuSans-5c" d="M 2059 -325 
Q 1816 -950 1584 -1140 
Q 1353 -1331 966 -1331 
L 506 -1331 
L 506 -850 
L 844 -850 
Q 1081 -850 1212 -737 
Q 1344 -625 1503 -206 
L 1606 56 
L 191 3500 
L 800 3500 
L 1894 763 
L 2988 3500 
L 3597 3500 
L 2059 -325 
z
" transform="scale(0.015625)"/>
    </defs>
    <use xlink:href="#DejaVuSans-31"/>
    <use xlink:href="#DejaVuSans-52" transform="translate(74.8125 0)"/>
    <use xlink:href="#DejaVuSans-51" transform="translate(136 0)"/>
    <use xlink:href="#DejaVuSans-48" transform="translate(199.375 0)"/>
    <use xlink:href="#DejaVuSans-3" transform="translate(260.90625 0)"/>
    <use xlink:href="#DejaVuSans-52" transform="translate(292.6875 0)"/>
    <use xlink:href="#DejaVuSans-49" transform="translate(353.875 0)"/>
    <use xlink:href="#DejaVuSans-3" transform="translate(389.078125 0)"/>
    <use xlink:href="#DejaVuSans-57" transform="translate(420.859375 0)"/>
    <use xlink:href="#DejaVuSans-4b" transform="translate(460.0625 0)"/>
    <use xlink:href="#DejaVuSans-48" transform="translate(523.4375 0)"/>
    <use xlink:href="#DejaVuSans-3" transform="translate(584.96875 0)"/>
    <use xlink:href="#DejaVuSans-4a" transform="translate(616.75 0)"/>
    <use xlink:href="#DejaVuSans-4f" transform="translate(680.234375 0)"/>
    <use xlink:href="#DejaVuSans-52" transform="translate(708.015625 0)"/>
    <use xlink:href="#DejaVuSans-45" transform="translate(769.203125 0)"/>
    <use xlink:href="#DejaVuSans-44" transform="translate(832.6875 0)"/>
    <use xlink:href="#DejaVuSans-4f" transform="translate(893.96875 0)"/>
    <use xlink:href="#DejaVuSans-3" transform="translate(921.75 0)"/>
    <use xlink:href="#DejaVuSans-53" transform="translate(953.53125 0)"/>
    <use xlink:href="#DejaVuSans-48" transform="translate(1017.015625 0)"/>
    <use xlink:href="#DejaVuSans-55" transform="translate(1078.546875 0)"/>
    <use xlink:href="#DejaVuSans-50" transform="translate(1117.90625 0)"/>
    <use xlink:href="#DejaVuSans-58" transform="translate(1215.3125 0)"/>
    <use xlink:href="#DejaVuSans-57" transform="translate(1278.6875 0)"/>
    <use xlink:href="#DejaVuSans-44" transform="translate(1317.890625 0)"/>
    <use xlink:href="#DejaVuSans-57" transform="translate(1379.171875 0)"/>
    <use xlink:href="#DejaVuSans-4c" transform="translate(1418.375 0)"/>
    <use xlink:href="#DejaVuSans-52" transform="translate(1446.15625 0)"/>
    <use xlink:href="#DejaVuSans-51" transform="translate(1507.34375 0)"/>
    <use xlink:href="#DejaVuSans-3" transform="translate(1570.71875 0)"/>
    <use xlink:href="#DejaVuSans-57" transform="translate(1602.5 0)"/>
    <use xlink:href="#DejaVuSans-48" transform="translate(1641.703125 0)"/>
    <use xlink:href="#DejaVuSans-56" transform="translate(1703.234375 0)"/>
    <use xlink:href="#DejaVuSans-57" transform="translate(1755.328125 0)"/>
    <use xlink:href="#DejaVuSans-56" transform="translate(1794.53125 0)"/>
    <use xlink:href="#DejaVuSans-3" transform="translate(1846.625 0)"/>
    <use xlink:href="#DejaVuSans-4c" transform="translate(1878.40625 0)"/>
    <use xlink:href="#DejaVuSans-56" transform="translate(1906.1875 0)"/>
    <use xlink:href="#DejaVuSans-3" transform="translate(1958.28125 0)"/>
    <use xlink:href="#DejaVuSans-56" transform="translate(1990.0625 0)"/>
    <use xlink:href="#DejaVuSans-57" transform="translate(2042.15625 0)"/>
    <use xlink:href="#DejaVuSans-44" transform="translate(2081.359375 0)"/>
    <use xlink:href="#DejaVuSans-57" transform="translate(2142.640625 0)"/>
    <use xlink:href="#DejaVuSans-4c" transform="translate(2181.84375 0)"/>
    <use xlink:href="#DejaVuSans-56" transform="translate(2209.625 0)"/>
    <use xlink:href="#DejaVuSans-57" transform="translate(2261.71875 0)"/>
    <use xlink:href="#DejaVuSans-4c" transform="translate(2300.921875 0)"/>
    <use xlink:href="#DejaVuSans-46" transform="translate(2328.703125 0)"/>
    <use xlink:href="#DejaVuSans-44" transform="translate(2383.6875 0)"/>
    <use xlink:href="#DejaVuSans-4f" transform="translate(2444.96875 0)"/>
    <use xlink:href="#DejaVuSans-4f" transform="translate(2472.75 0)"/>
    <use xlink:href="#DejaVuSans-5c" transform="translate(2500.53125 0)"/>
    <use xlink:href="#DejaVuSans-3" transform="translate(2559.71875 0)"/>
    <use xlink:href="#DejaVuSans-56" transform="translate(2591.5 0)"/>
    <use xlink:href="#DejaVuSans-4c" transform="translate(2643.59375 0)"/>
    <use xlink:href="#DejaVuSans-4a" transform="translate(2671.375 0)"/>
    <use xlink:href="#DejaVuSans-51" transform="translate(2734.859375 0)"/>
    <use xlink:href="#DejaVuSans-4c" transform="translate(2798.234375 0)"/>
    <use xlink:href="#DejaVuSans-13af" transform="translate(2826.015625 0)"/>
    <use xlink:href="#DejaVuSans-46" transform="translate(2889 0)"/>
    <use xlink:href="#DejaVuSans-44" transform="translate(2943.984375 0)"/>
    <use xlink:href="#DejaVuSans-51" transform="translate(3005.265625 0)"/>
    <use xlink:href="#DejaVuSans-57" transform="translate(3068.640625 0)"/>
    <use xlink:href="#DejaVuSans-3" transform="translate(3107.84375 0)"/>
    <use xlink:href="#DejaVuSans-44" transform="translate(3139.625 0)"/>
    <use xlink:href="#DejaVuSans-57" transform="translate(3200.90625 0)"/>
    <use xlink:href="#DejaVuSans-3" transform="translate(3240.109375 0)"/>
    <use xlink:href="#DejaVuSans-44" transform="translate(3271.890625 0)"/>
    <use xlink:href="#DejaVuSans-4f" transform="translate(3333.171875 0)"/>
    <use xlink:href="#DejaVuSans-53" transform="translate(3360.953125 0)"/>
    <use xlink:href="#DejaVuSans-4b" transform="translate(3424.4375 0)"/>
    <use xlink:href="#DejaVuSans-44" transform="translate(3487.8125 0)"/>
    <use xlink:href="#DejaVuSans-3" transform="translate(3549.09375 0)"/>
    <use xlink:href="#DejaVuSans-20" transform="translate(3580.875 0)"/>
    <use xlink:href="#DejaVuSans-3" transform="translate(3664.671875 0)"/>
    <use xlink:href="#DejaVuSans-13" transform="translate(3696.453125 0)"/>
    <use xlink:href="#DejaVuSans-11" transform="translate(3760.078125 0)"/>
    <use xlink:href="#DejaVuSans-13" transform="translate(3791.859375 0)"/>
    <use xlink:href="#DejaVuSans-18" transform="translate(3855.484375 0)"/>
    <use xlink:href="#DejaVuSans-11" transform="translate(3919.109375 0)"/>
   </g>
  </g>
 </g>
 <defs>
  <clipPath id="p6f1f13f469">
   <rect x="60.84625" y="38.958281" width="585.9" height="360.36"/>
  </clipPath>
 </defs>
</svg>
